<svg width="50" height="50" viewBox="0 0 50 50" fill="none" xmlns="http://www.w3.org/2000/svg">
<path d="M12.5 3.78809C7.69297 3.78809 3.78784 7.69321 3.78784 12.5002V37.5002C3.78784 42.3072 7.69297 46.2123 12.5 46.2123H37.5C42.307 46.2123 46.2121 42.3072 46.2121 37.5002V24.6214C46.2128 24.5712 46.2035 24.5214 46.1848 24.4748C46.1661 24.4282 46.1383 24.3858 46.1031 24.3501C46.0678 24.3143 46.0258 24.286 45.9795 24.2666C45.9332 24.2472 45.8835 24.2372 45.8333 24.2372C45.7831 24.2372 45.7334 24.2472 45.6871 24.2666C45.6408 24.286 45.5988 24.3143 45.5635 24.3501C45.5283 24.3858 45.5005 24.4282 45.4818 24.4748C45.4631 24.5214 45.4538 24.5712 45.4545 24.6214V37.5002C45.4545 41.8978 41.8975 45.4548 37.5 45.4548H12.5C8.10241 45.4548 4.54542 41.8978 4.54542 37.5002V12.5002C4.54542 8.10266 8.10241 4.54566 12.5 4.54566H37.5C37.7403 4.54566 37.9804 4.56055 38.2235 4.58265C38.2731 4.58713 38.323 4.5818 38.3705 4.56697C38.418 4.55214 38.4621 4.5281 38.5003 4.49623C38.5385 4.46435 38.57 4.42526 38.5931 4.38119C38.6162 4.33712 38.6304 4.28893 38.6349 4.23938C38.6394 4.18983 38.634 4.13988 38.6192 4.09239C38.6044 4.0449 38.5803 4.00079 38.5484 3.9626C38.5165 3.9244 38.4775 3.89285 38.4334 3.86977C38.3893 3.84668 38.3411 3.8325 38.2916 3.82804C38.0346 3.80468 37.7717 3.78809 37.5 3.78809H12.5ZM45.8274 15.1458C45.7776 15.1466 45.7285 15.1571 45.6829 15.1769C45.6372 15.1967 45.5959 15.2252 45.5613 15.2609C45.5266 15.2967 45.4994 15.3388 45.4811 15.3851C45.4628 15.4314 45.4537 15.4808 45.4545 15.5305V17.0457C45.4538 17.0959 45.4631 17.1457 45.4818 17.1923C45.5005 17.2388 45.5283 17.2812 45.5635 17.317C45.5988 17.3527 45.6408 17.3811 45.6871 17.4005C45.7334 17.4199 45.7831 17.4298 45.8333 17.4298C45.8835 17.4298 45.9332 17.4199 45.9795 17.4005C46.0258 17.3811 46.0678 17.3527 46.1031 17.317C46.1383 17.2812 46.1661 17.2388 46.1848 17.1923C46.2035 17.1457 46.2128 17.0959 46.2121 17.0457V15.5305C46.2129 15.4798 46.2035 15.4294 46.1844 15.3824C46.1654 15.3353 46.1371 15.2926 46.1012 15.2567C46.0653 15.2208 46.0226 15.1925 45.9755 15.1735C45.9285 15.1544 45.8781 15.145 45.8274 15.1458ZM12.025 16.6654C11.5185 16.6654 11.1289 16.7987 10.8886 17.0679C10.6484 17.337 10.606 17.6712 10.606 17.9438C10.606 18.4691 10.7905 19.7966 11.4553 21.7169C12.1201 23.6372 13.2685 26.1051 15.2047 28.7407C18.0311 32.5877 21.7682 34.8472 25.1731 34.8472C25.7169 34.8472 26.2344 34.7164 26.632 34.3974C27.0296 34.0784 27.2742 33.5659 27.2742 32.9533V29.4939V29.4924C27.2739 29.2314 27.3548 29.0812 27.4798 28.9701C27.6049 28.859 27.7943 28.7881 28.0303 28.7881C28.3185 28.7881 28.5876 28.874 29.0468 29.2335C29.506 29.5929 30.1211 30.2234 30.991 31.2325H30.9895C31.9877 32.3911 32.5715 33.2462 33.0832 33.8514C33.5951 34.4566 34.1185 34.8487 34.8218 34.8487H37.8787C38.2867 34.8487 38.651 34.7677 38.9352 34.5528C39.2194 34.3378 39.3806 33.9853 39.3924 33.6102C39.3985 33.4166 39.369 33.2214 39.3184 33.0139L39.314 32.9977L39.3096 32.9814C39.0426 32.2009 38.1271 30.5944 36.8045 29.0012C36.0886 28.139 35.3717 27.2713 35.0719 26.8424L35.0704 26.8409L35.0689 26.8379C34.8732 26.5662 34.8444 26.4465 34.8484 26.3556C34.8522 26.2666 34.9218 26.1098 35.0881 25.8273L35.0955 25.814C35.0955 25.814 35.1006 25.8044 35.1029 25.8007L35.1177 25.7785C35.142 25.7407 35.1823 25.6808 35.2332 25.6039C35.3348 25.45 35.4832 25.2256 35.6637 24.9514C36.0247 24.403 36.5132 23.6524 37.0161 22.8414C37.5191 22.0304 38.0367 21.1592 38.4558 20.3675C38.8713 19.5826 39.1878 18.8957 39.3051 18.3477C39.3669 18.1456 39.3983 17.9464 39.3924 17.7588V17.7574V17.7544C39.3797 17.4601 39.2534 17.154 39.0033 16.9539C38.7532 16.7539 38.4174 16.6669 38.0193 16.6669H34.9624C34.501 16.6669 34.1191 16.816 33.8438 17.0427C33.5685 17.2694 33.4 17.557 33.2815 17.821V17.818C33.2815 17.818 31.594 21.4901 29.5942 24.0074C29.4897 24.1389 28.7875 25.0002 27.6515 25.0002C27.6199 25.0002 27.5085 24.9851 27.4355 24.9277C27.3624 24.8703 27.2727 24.774 27.2727 24.432V18.2249C27.2727 17.7898 27.2325 17.4242 27.0256 17.1196C26.8187 16.8151 26.4383 16.6669 26.0401 16.6669H20.8333C20.1537 16.6669 19.6969 17.2389 19.6969 17.8032C19.6969 18.1205 19.8722 18.3792 20.0461 18.5519C20.22 18.7247 20.4039 18.8563 20.5714 19.0165C20.9064 19.337 21.2102 19.728 21.2091 20.7181V24.9292C21.2091 25.4178 21.1483 25.6792 21.1174 25.7371C21.1019 25.766 21.1144 25.7474 21.1144 25.7474C21.1144 25.7474 21.0895 25.7563 21.0227 25.7563C20.9639 25.7563 20.6775 25.6346 20.3406 25.2873C20.0037 24.9399 19.6073 24.4064 19.1998 23.7277C18.3848 22.3703 17.5169 20.4313 16.8412 18.1746L16.8397 18.1702L16.8383 18.1643C16.6829 17.6928 16.5212 17.3247 16.2346 17.0531C15.9479 16.7814 15.5518 16.6654 15.1086 16.6654H12.025ZM12.025 17.423H15.1086C15.4411 17.423 15.5824 17.479 15.7123 17.602C15.8421 17.725 15.9769 17.9755 16.1177 18.4025C16.8097 20.7108 17.6952 22.6943 18.5502 24.1183C18.9784 24.8315 19.3975 25.4046 19.7961 25.8155C20.1946 26.2264 20.5637 26.5139 21.0227 26.5139C21.1499 26.5139 21.2914 26.5014 21.4355 26.434C21.5796 26.3665 21.7072 26.2388 21.7847 26.0937C21.9398 25.8034 21.9667 25.4618 21.9667 24.9292V20.7181C21.9679 19.5507 21.5172 18.8729 21.0952 18.4691C20.8842 18.2672 20.6889 18.1228 20.5788 18.0133C20.4687 17.9039 20.4545 17.8739 20.4545 17.8032C20.4545 17.6236 20.5644 17.4244 20.8333 17.4244H26.0401C26.2943 17.4244 26.3416 17.4625 26.3982 17.5458C26.4548 17.6291 26.5151 17.8525 26.5151 18.2249V24.432C26.5151 24.9423 26.7095 25.3195 26.9679 25.5225C27.2263 25.7256 27.4936 25.7578 27.6515 25.7578C29.167 25.7578 30.0679 24.6266 30.1861 24.4779C32.2787 21.8437 33.971 18.1332 33.971 18.1332V18.1317H33.9725C34.0638 17.9283 34.177 17.7502 34.3247 17.6286C34.4722 17.5071 34.6526 17.4244 34.9624 17.4244H38.0193C38.3053 17.4244 38.4581 17.4884 38.5298 17.5458C38.6011 17.6028 38.6306 17.6607 38.6363 17.787C38.6389 17.8836 38.6226 18.0044 38.5801 18.1391L38.5742 18.1569L38.5712 18.1746C38.492 18.5547 38.1915 19.2469 37.7855 20.0138C37.3796 20.7807 36.87 21.6397 36.3725 22.4419C35.875 23.2441 35.3895 23.9902 35.0304 24.5356C34.8509 24.8083 34.7026 25.0296 34.5999 25.1852C34.5485 25.2629 34.5084 25.3245 34.48 25.3686C34.4658 25.3907 34.4552 25.4069 34.4445 25.4249C34.4418 25.4294 34.4388 25.4386 34.4356 25.4441C34.4326 25.4495 34.4302 25.4522 34.4253 25.4619C34.4203 25.4717 34.4001 25.521 34.4001 25.521C34.4001 25.521 34.3978 25.5363 34.3972 25.5418C34.2499 25.7921 34.1055 26.0216 34.0924 26.3215C34.0782 26.6377 34.2135 26.9451 34.4549 27.2803V27.2818C34.8027 27.779 35.507 28.6245 36.2216 29.485C37.485 31.007 38.392 32.6559 38.586 33.2152C38.6217 33.3682 38.6392 33.4945 38.6363 33.5866C38.63 33.7881 38.5792 33.8725 38.478 33.9491C38.3768 34.0256 38.1821 34.0911 37.8787 34.0911H34.8218C34.3668 34.0911 34.1275 33.9138 33.6618 33.3631C33.1961 32.8125 32.5867 31.9258 31.5636 30.7383C30.6813 29.7147 30.0512 29.0574 29.5143 28.6372C28.9775 28.2169 28.4996 28.0305 28.0303 28.0305C27.6412 28.0305 27.2634 28.1487 26.9768 28.4034C26.6901 28.658 26.5161 29.0496 26.5166 29.4939V32.9533C26.5166 33.3823 26.3806 33.6288 26.1585 33.807C25.9364 33.9852 25.5929 34.0896 25.1731 34.0896C22.1083 34.0896 18.5365 31.9955 15.8158 28.2924C13.9286 25.7235 12.8137 23.3234 12.1715 21.4683C11.5293 19.6132 11.3636 18.2579 11.3636 17.9438C11.3636 17.7535 11.3964 17.6368 11.4539 17.5724C11.5113 17.508 11.6421 17.423 12.025 17.423ZM45.8274 18.9337C45.7776 18.9345 45.7285 18.945 45.6829 18.9648C45.6372 18.9845 45.5959 19.0131 45.5613 19.0488C45.5266 19.0845 45.4994 19.1267 45.4811 19.173C45.4628 19.2192 45.4537 19.2686 45.4545 19.3184V22.3487C45.4538 22.3989 45.4631 22.4487 45.4818 22.4953C45.5005 22.5419 45.5283 22.5843 45.5635 22.62C45.5988 22.6558 45.6408 22.6841 45.6871 22.7035C45.7334 22.7229 45.7831 22.7329 45.8333 22.7329C45.8835 22.7329 45.9332 22.7229 45.9795 22.7035C46.0258 22.6841 46.0678 22.6558 46.1031 22.62C46.1383 22.5843 46.1661 22.5419 46.1848 22.4953C46.2035 22.4487 46.2128 22.3989 46.2121 22.3487V19.3184C46.2129 19.2676 46.2035 19.2173 46.1844 19.1702C46.1654 19.1232 46.1371 19.0805 46.1012 19.0446C46.0653 19.0087 46.0226 18.9804 45.9755 18.9614C45.9285 18.9423 45.8781 18.9329 45.8274 18.9337Z" fill="white"/>
</svg>
